<?xml version="1.0" encoding="utf-8"?>
<svg height="48" viewBox="0 96 960 960" width="48" fill="#FFFFFF" xmlns="http://www.w3.org/2000/svg">
  <path d="M 680 406 C 666.667 406 655 401 645 391 C 635 381 630 369.254 630 355.762 C 630 346.587 634.5 334.167 643.5 318.5 C 652.5 302.833 664.667 287 680 271 C 695.333 287 707.5 302.799 716.5 318.397 C 725.5 333.995 730 346.529 730 356 C 730 369.333 725.139 381 715.417 391 C 705.694 401 693.889 406 680 406 Z M 790 686 C 765.333 686 744.167 677.167 726.5 659.5 C 708.833 641.833 700 620.636 700 595.909 C 700 575.303 709.167 549.5 727.5 518.5 C 745.833 487.5 766.667 458.333 790 431 C 812.667 458.333 833.333 487.425 852 518.275 C 870.667 549.126 880 575.034 880 596 C 880 620.667 871.3 641.833 853.9 659.5 C 836.5 677.167 815.2 686 790 686 Z M 220 976 C 204 976 190 970 178 958 C 166 946 160 932 160 916 L 160 566 C 160 508.667 179 458.603 217 415.808 C 255 373.013 302.667 347.077 360 338 L 360 236 L 270 236 L 270 176 L 510 176 C 529.532 176 547.915 178.667 565.149 184 C 582.383 189.333 598.667 197 614 207 L 570 252 C 560.667 246.667 551.167 242.667 541.5 240 C 531.833 237.333 521.333 236 510 236 L 420 236 L 420 338 C 477.333 347.077 525 373.013 563 415.808 C 601 458.603 620 508.667 620 566 L 620 916 C 620 932 614 946 602 958 C 590 970 576 976 560 976 L 220 976 Z M 220 916 L 560 916 L 560 566 C 560 518.667 543.5 478.5 510.5 445.5 C 477.5 412.5 437.5 396 390.5 396 C 343.5 396 303.333 412.5 270 445.5 C 236.667 478.5 220 518.667 220 566 L 220 916 Z M 220 916 L 560 916 L 220 916 Z"/>
  <path d="M 375.646 800.687 L 375.646 692.598 L 367.071 692.598 C 348.777 692.598 331.554 689.741 315.403 684.027 C 299.253 678.314 284.888 670.211 272.311 659.716 C 259.734 649.223 250.229 637.096 243.798 623.337 C 237.365 609.578 234.15 595.236 234.15 580.311 L 234.15 552.327 L 267.733 552.327 C 285.363 552.327 302.325 555.185 318.619 560.897 C 334.913 566.61 349.492 574.714 362.354 585.208 C 371.788 593.137 379.576 601.999 385.723 611.794 C 391.869 621.588 396.228 631.966 398.8 642.926 C 400.987 640.151 403.391 637.475 406.014 634.897 C 408.637 632.321 411.377 629.75 414.237 627.184 C 427.1 616.691 441.678 608.587 457.972 602.873 C 474.265 597.16 491.369 594.303 509.283 594.303 L 542.87 594.303 L 542.87 622.287 C 542.87 637.213 539.443 651.555 532.588 665.313 C 525.734 679.072 516.012 691.199 503.423 701.693 C 490.559 712.187 476.043 720.232 459.875 725.829 C 443.707 731.425 426.779 734.225 409.091 734.225 L 401.373 734.225 L 401.373 800.687 L 375.646 800.687 Z M 376.075 671.26 C 376.075 657.035 373.216 643.8 367.5 631.557 C 361.782 619.314 353.921 608.937 343.917 600.425 C 333.912 591.913 321.621 585.266 307.042 580.486 C 292.464 575.706 276.742 573.315 259.877 573.315 C 259.877 588.007 262.521 601.474 267.809 613.718 C 273.097 625.961 280.744 636.396 290.748 645.025 C 302.755 655.519 315.689 662.515 329.553 666.013 C 343.416 669.511 358.924 671.26 376.075 671.26 Z M 401.373 713.236 C 418.525 713.236 434.389 710.963 448.968 706.415 C 463.546 701.867 475.838 695.338 485.842 686.826 C 495.848 678.314 503.565 667.936 508.996 655.694 C 514.428 643.45 517.144 629.984 517.144 615.291 C 499.992 615.291 484.127 617.682 469.549 622.462 C 454.97 627.243 442.679 633.831 432.675 642.226 C 420.382 652.72 412.092 663.681 407.805 675.108 C 403.517 686.534 401.373 699.244 401.373 713.236 Z M 401.373 713.236 Z M 376.075 671.26 Z" style=""/>
</svg>